<?xml version="1.0" standalone="no"?>
<!DOCTYPE svg PUBLIC "-//W3C//DTD SVG 20010904//EN"
 "http://www.w3.org/TR/2001/REC-SVG-20010904/DTD/svg10.dtd">
<svg version="1.0" xmlns="http://www.w3.org/2000/svg"
 width="362.000000pt" height="490.000000pt" viewBox="0 0 362.000000 490.000000"
 preserveAspectRatio="xMidYMid meet">
<metadata>
Created by potrace 1.10, written by Peter Selinger 2001-2011
</metadata>
<g transform="translate(0.000000,490.000000) scale(0.050000,-0.050000)"
fill="#000000" stroke="none">
<path d="M2330 9490 c-3 -11 -205 -893 -449 -1960 -245 -1067 -675 -2934 -955
-4150 -281 -1215 -515 -2228 -520 -2250 -9 -40 1 -40 816 -36 l825 4 106 466
c351 1546 420 1846 507 2226 173 752 277 1217 300 1351 22 127 49 198 66 178
5 -5 1 -157 -8 -339 -9 -181 -40 -1045 -67 -1920 -28 -874 -55 -1675 -62
-1780 l-12 -190 827 4 826 3 15 57 c8 31 182 785 386 1676 650 2838 1507 6558
1526 6620 l17 60 -818 0 c-801 0 -818 -1 -827 -40 -71 -323 -214 -957 -319
-1410 -73 -313 -162 -705 -200 -870 -37 -165 -86 -381 -110 -480 -105 -444
-260 -1154 -260 -1190 0 -22 -10 -40 -23 -40 -16 0 -19 63 -9 225 7 124 44
986 82 1915 38 930 72 1733 75 1787 l5 96 -868 4 c-564 2 -869 -4 -872 -17z
m1470 -705 c0 -261 -18 -893 -40 -1405 -67 -1577 -58 -1848 64 -1974 82 -85
116 -83 202 12 112 124 148 252 514 1842 133 578 287 1248 343 1490 55 242
109 456 120 475 17 32 66 35 588 35 l569 0 0 -51 c0 -48 -35 -205 -250 -1139
-48 -209 -201 -875 -340 -1480 -139 -605 -319 -1388 -400 -1740 -81 -352 -234
-1018 -340 -1480 -106 -462 -251 -1092 -322 -1399 -71 -307 -142 -580 -159
-605 l-30 -46 -599 0 -600 0 0 305 c0 167 19 867 42 1555 22 687 38 1430 35
1650 l-7 400 -61 90 c-93 138 -184 130 -281 -24 -93 -147 -162 -409 -526
-2006 -87 -385 -218 -959 -291 -1276 -72 -317 -145 -602 -161 -635 l-31 -59
-538 0 c-296 0 -552 5 -569 12 -54 21 -40 97 249 1356 155 672 430 1866 611
2652 181 787 374 1624 428 1860 55 237 150 646 210 910 228 988 255 1101 275
1125 15 19 171 25 657 25 l638 0 0 -475z"/>
</g>
</svg>
